solid horizontal_cylinder
  facet normal 0.000000e+00 -9.961947e-01 -8.715574e-02
    outer loop
      vertex 0.000000e+00 5.000000e-01 5.000000e-01
      vertex 3.000000e+00 5.000000e-01 5.000000e-01
      vertex 3.000000e+00 4.924039e-01 5.868241e-01
    endloop
  endfacet
  facet normal 0.000000e+00 -9.961947e-01 -8.715574e-02
    outer loop
      vertex 0.000000e+00 5.000000e-01 5.000000e-01
      vertex 3.000000e+00 4.924039e-01 5.868241e-01
      vertex 0.000000e+00 4.924039e-01 5.868241e-01
    endloop
  endfacet
  facet normal -1.000000e+00 0.000000e+00 0.000000e+00
    outer loop
      vertex 0.000000e+00 0.000000e+00 5.000000e-01
      vertex 0.000000e+00 4.924039e-01 5.868241e-01
      vertex 0.000000e+00 5.000000e-01 5.000000e-01
    endloop
  endfacet
  facet normal 1.000000e+00 0.000000e+00 0.000000e+00
    outer loop
      vertex 3.000000e+00 0.000000e+00 5.000000e-01
      vertex 3.000000e+00 5.000000e-01 5.000000e-01
      vertex 3.000000e+00 4.924039e-01 5.868241e-01
    endloop
  endfacet
  facet normal 0.000000e+00 -9.659258e-01 -2.588190e-01
    outer loop
      vertex 0.000000e+00 4.924039e-01 5.868241e-01
      vertex 3.000000e+00 4.924039e-01 5.868241e-01
      vertex 3.000000e+00 4.698463e-01 6.710101e-01
    endloop
  endfacet
  facet normal 0.000000e+00 -9.659258e-01 -2.588190e-01
    outer loop
      vertex 0.000000e+00 4.924039e-01 5.868241e-01
      vertex 3.000000e+00 4.698463e-01 6.710101e-01
      vertex 0.000000e+00 4.698463e-01 6.710101e-01
    endloop
  endfacet
  facet normal -1.000000e+00 0.000000e+00 0.000000e+00
    outer loop
      vertex 0.000000e+00 0.000000e+00 5.000000e-01
      vertex 0.000000e+00 4.698463e-01 6.710101e-01
      vertex 0.000000e+00 4.924039e-01 5.868241e-01
    endloop
  endfacet
  facet normal 1.000000e+00 0.000000e+00 0.000000e+00
    outer loop
      vertex 3.000000e+00 0.000000e+00 5.000000e-01
      vertex 3.000000e+00 4.924039e-01 5.868241e-01
      vertex 3.000000e+00 4.698463e-01 6.710101e-01
    endloop
  endfacet
  facet normal 0.000000e+00 -9.063078e-01 -4.226183e-01
    outer loop
      vertex 0.000000e+00 4.698463e-01 6.710101e-01
      vertex 3.000000e+00 4.698463e-01 6.710101e-01
      vertex 3.000000e+00 4.330127e-01 7.500000e-01
    endloop
  endfacet
  facet normal 0.000000e+00 -9.063078e-01 -4.226183e-01
    outer loop
      vertex 0.000000e+00 4.698463e-01 6.710101e-01
      vertex 3.000000e+00 4.330127e-01 7.500000e-01
      vertex 0.000000e+00 4.330127e-01 7.500000e-01
    endloop
  endfacet
  facet normal -1.000000e+00 0.000000e+00 0.000000e+00
    outer loop
      vertex 0.000000e+00 0.000000e+00 5.000000e-01
      vertex 0.000000e+00 4.330127e-01 7.500000e-01
      vertex 0.000000e+00 4.698463e-01 6.710101e-01
    endloop
  endfacet
  facet normal 1.000000e+00 0.000000e+00 0.000000e+00
    outer loop
      vertex 3.000000e+00 0.000000e+00 5.000000e-01
      vertex 3.000000e+00 4.698463e-01 6.710101e-01
      vertex 3.000000e+00 4.330127e-01 7.500000e-01
    endloop
  endfacet
  facet normal 0.000000e+00 -8.191520e-01 -5.735764e-01
    outer loop
      vertex 0.000000e+00 4.330127e-01 7.500000e-01
      vertex 3.000000e+00 4.330127e-01 7.500000e-01
      vertex 3.000000e+00 3.830222e-01 8.213938e-01
    endloop
  endfacet
  facet normal 0.000000e+00 -8.191520e-01 -5.735764e-01
    outer loop
      vertex 0.000000e+00 4.330127e-01 7.500000e-01
      vertex 3.000000e+00 3.830222e-01 8.213938e-01
      vertex 0.000000e+00 3.830222e-01 8.213938e-01
    endloop
  endfacet
  facet normal -1.000000e+00 0.000000e+00 0.000000e+00
    outer loop
      vertex 0.000000e+00 0.000000e+00 5.000000e-01
      vertex 0.000000e+00 3.830222e-01 8.213938e-01
      vertex 0.000000e+00 4.330127e-01 7.500000e-01
    endloop
  endfacet
  facet normal 1.000000e+00 0.000000e+00 0.000000e+00
    outer loop
      vertex 3.000000e+00 0.000000e+00 5.000000e-01
      vertex 3.000000e+00 4.330127e-01 7.500000e-01
      vertex 3.000000e+00 3.830222e-01 8.213938e-01
    endloop
  endfacet
  facet normal 0.000000e+00 -7.071068e-01 -7.071068e-01
    outer loop
      vertex 0.000000e+00 3.830222e-01 8.213938e-01
      vertex 3.000000e+00 3.830222e-01 8.213938e-01
      vertex 3.000000e+00 3.213938e-01 8.830222e-01
    endloop
  endfacet
  facet normal 0.000000e+00 -7.071068e-01 -7.071068e-01
    outer loop
      vertex 0.000000e+00 3.830222e-01 8.213938e-01
      vertex 3.000000e+00 3.213938e-01 8.830222e-01
      vertex 0.000000e+00 3.213938e-01 8.830222e-01
    endloop
  endfacet
  facet normal -1.000000e+00 0.000000e+00 0.000000e+00
    outer loop
      vertex 0.000000e+00 0.000000e+00 5.000000e-01
      vertex 0.000000e+00 3.213938e-01 8.830222e-01
      vertex 0.000000e+00 3.830222e-01 8.213938e-01
    endloop
  endfacet
  facet normal 1.000000e+00 0.000000e+00 0.000000e+00
    outer loop
      vertex 3.000000e+00 0.000000e+00 5.000000e-01
      vertex 3.000000e+00 3.830222e-01 8.213938e-01
      vertex 3.000000e+00 3.213938e-01 8.830222e-01
    endloop
  endfacet
  facet normal 0.000000e+00 -5.735764e-01 -8.191520e-01
    outer loop
      vertex 0.000000e+00 3.213938e-01 8.830222e-01
      vertex 3.000000e+00 3.213938e-01 8.830222e-01
      vertex 3.000000e+00 2.500000e-01 9.330127e-01
    endloop
  endfacet
  facet normal 0.000000e+00 -5.735764e-01 -8.191520e-01
    outer loop
      vertex 0.000000e+00 3.213938e-01 8.830222e-01
      vertex 3.000000e+00 2.500000e-01 9.330127e-01
      vertex 0.000000e+00 2.500000e-01 9.330127e-01
    endloop
  endfacet
  facet normal -1.000000e+00 0.000000e+00 0.000000e+00
    outer loop
      vertex 0.000000e+00 0.000000e+00 5.000000e-01
      vertex 0.000000e+00 2.500000e-01 9.330127e-01
      vertex 0.000000e+00 3.213938e-01 8.830222e-01
    endloop
  endfacet
  facet normal 1.000000e+00 0.000000e+00 0.000000e+00
    outer loop
      vertex 3.000000e+00 0.000000e+00 5.000000e-01
      vertex 3.000000e+00 3.213938e-01 8.830222e-01
      vertex 3.000000e+00 2.500000e-01 9.330127e-01
    endloop
  endfacet
  facet normal 0.000000e+00 -4.226183e-01 -9.063078e-01
    outer loop
      vertex 0.000000e+00 2.500000e-01 9.330127e-01
      vertex 3.000000e+00 2.500000e-01 9.330127e-01
      vertex 3.000000e+00 1.710101e-01 9.698463e-01
    endloop
  endfacet
  facet normal 0.000000e+00 -4.226183e-01 -9.063078e-01
    outer loop
      vertex 0.000000e+00 2.500000e-01 9.330127e-01
      vertex 3.000000e+00 1.710101e-01 9.698463e-01
      vertex 0.000000e+00 1.710101e-01 9.698463e-01
    endloop
  endfacet
  facet normal -1.000000e+00 0.000000e+00 0.000000e+00
    outer loop
      vertex 0.000000e+00 0.000000e+00 5.000000e-01
      vertex 0.000000e+00 1.710101e-01 9.698463e-01
      vertex 0.000000e+00 2.500000e-01 9.330127e-01
    endloop
  endfacet
  facet normal 1.000000e+00 0.000000e+00 0.000000e+00
    outer loop
      vertex 3.000000e+00 0.000000e+00 5.000000e-01
      vertex 3.000000e+00 2.500000e-01 9.330127e-01
      vertex 3.000000e+00 1.710101e-01 9.698463e-01
    endloop
  endfacet
  facet normal 0.000000e+00 -2.588190e-01 -9.659258e-01
    outer loop
      vertex 0.000000e+00 1.710101e-01 9.698463e-01
      vertex 3.000000e+00 1.710101e-01 9.698463e-01
      vertex 3.000000e+00 8.682409e-02 9.924039e-01
    endloop
  endfacet
  facet normal 0.000000e+00 -2.588190e-01 -9.659258e-01
    outer loop
      vertex 0.000000e+00 1.710101e-01 9.698463e-01
      vertex 3.000000e+00 8.682409e-02 9.924039e-01
      vertex 0.000000e+00 8.682409e-02 9.924039e-01
    endloop
  endfacet
  facet normal -1.000000e+00 0.000000e+00 0.000000e+00
    outer loop
      vertex 0.000000e+00 0.000000e+00 5.000000e-01
      vertex 0.000000e+00 8.682409e-02 9.924039e-01
      vertex 0.000000e+00 1.710101e-01 9.698463e-01
    endloop
  endfacet
  facet normal 1.000000e+00 0.000000e+00 0.000000e+00
    outer loop
      vertex 3.000000e+00 0.000000e+00 5.000000e-01
      vertex 3.000000e+00 1.710101e-01 9.698463e-01
      vertex 3.000000e+00 8.682409e-02 9.924039e-01
    endloop
  endfacet
  facet normal 0.000000e+00 -8.715574e-02 -9.961947e-01
    outer loop
      vertex 0.000000e+00 8.682409e-02 9.924039e-01
      vertex 3.000000e+00 8.682409e-02 9.924039e-01
      vertex 3.000000e+00 3.061617e-17 1.000000e+00
    endloop
  endfacet
  facet normal 0.000000e+00 -8.715574e-02 -9.961947e-01
    outer loop
      vertex 0.000000e+00 8.682409e-02 9.924039e-01
      vertex 3.000000e+00 3.061617e-17 1.000000e+00
      vertex 0.000000e+00 3.061617e-17 1.000000e+00
    endloop
  endfacet
  facet normal -1.000000e+00 0.000000e+00 0.000000e+00
    outer loop
      vertex 0.000000e+00 0.000000e+00 5.000000e-01
      vertex 0.000000e+00 3.061617e-17 1.000000e+00
      vertex 0.000000e+00 8.682409e-02 9.924039e-01
    endloop
  endfacet
  facet normal 1.000000e+00 0.000000e+00 0.000000e+00
    outer loop
      vertex 3.000000e+00 0.000000e+00 5.000000e-01
      vertex 3.000000e+00 8.682409e-02 9.924039e-01
      vertex 3.000000e+00 3.061617e-17 1.000000e+00
    endloop
  endfacet
  facet normal 0.000000e+00 8.715574e-02 -9.961947e-01
    outer loop
      vertex 0.000000e+00 3.061617e-17 1.000000e+00
      vertex 3.000000e+00 3.061617e-17 1.000000e+00
      vertex 3.000000e+00 -8.682409e-02 9.924039e-01
    endloop
  endfacet
  facet normal 0.000000e+00 8.715574e-02 -9.961947e-01
    outer loop
      vertex 0.000000e+00 3.061617e-17 1.000000e+00
      vertex 3.000000e+00 -8.682409e-02 9.924039e-01
      vertex 0.000000e+00 -8.682409e-02 9.924039e-01
    endloop
  endfacet
  facet normal -1.000000e+00 0.000000e+00 0.000000e+00
    outer loop
      vertex 0.000000e+00 0.000000e+00 5.000000e-01
      vertex 0.000000e+00 -8.682409e-02 9.924039e-01
      vertex 0.000000e+00 3.061617e-17 1.000000e+00
    endloop
  endfacet
  facet normal 1.000000e+00 0.000000e+00 0.000000e+00
    outer loop
      vertex 3.000000e+00 0.000000e+00 5.000000e-01
      vertex 3.000000e+00 3.061617e-17 1.000000e+00
      vertex 3.000000e+00 -8.682409e-02 9.924039e-01
    endloop
  endfacet
  facet normal 0.000000e+00 2.588190e-01 -9.659258e-01
    outer loop
      vertex 0.000000e+00 -8.682409e-02 9.924039e-01
      vertex 3.000000e+00 -8.682409e-02 9.924039e-01
      vertex 3.000000e+00 -1.710101e-01 9.698463e-01
    endloop
  endfacet
  facet normal 0.000000e+00 2.588190e-01 -9.659258e-01
    outer loop
      vertex 0.000000e+00 -8.682409e-02 9.924039e-01
      vertex 3.000000e+00 -1.710101e-01 9.698463e-01
      vertex 0.000000e+00 -1.710101e-01 9.698463e-01
    endloop
  endfacet
  facet normal -1.000000e+00 0.000000e+00 0.000000e+00
    outer loop
      vertex 0.000000e+00 0.000000e+00 5.000000e-01
      vertex 0.000000e+00 -1.710101e-01 9.698463e-01
      vertex 0.000000e+00 -8.682409e-02 9.924039e-01
    endloop
  endfacet
  facet normal 1.000000e+00 0.000000e+00 0.000000e+00
    outer loop
      vertex 3.000000e+00 0.000000e+00 5.000000e-01
      vertex 3.000000e+00 -8.682409e-02 9.924039e-01
      vertex 3.000000e+00 -1.710101e-01 9.698463e-01
    endloop
  endfacet
  facet normal 0.000000e+00 4.226183e-01 -9.063078e-01
    outer loop
      vertex 0.000000e+00 -1.710101e-01 9.698463e-01
      vertex 3.000000e+00 -1.710101e-01 9.698463e-01
      vertex 3.000000e+00 -2.500000e-01 9.330127e-01
    endloop
  endfacet
  facet normal 0.000000e+00 4.226183e-01 -9.063078e-01
    outer loop
      vertex 0.000000e+00 -1.710101e-01 9.698463e-01
      vertex 3.000000e+00 -2.500000e-01 9.330127e-01
      vertex 0.000000e+00 -2.500000e-01 9.330127e-01
    endloop
  endfacet
  facet normal -1.000000e+00 0.000000e+00 0.000000e+00
    outer loop
      vertex 0.000000e+00 0.000000e+00 5.000000e-01
      vertex 0.000000e+00 -2.500000e-01 9.330127e-01
      vertex 0.000000e+00 -1.710101e-01 9.698463e-01
    endloop
  endfacet
  facet normal 1.000000e+00 0.000000e+00 0.000000e+00
    outer loop
      vertex 3.000000e+00 0.000000e+00 5.000000e-01
      vertex 3.000000e+00 -1.710101e-01 9.698463e-01
      vertex 3.000000e+00 -2.500000e-01 9.330127e-01
    endloop
  endfacet
  facet normal 0.000000e+00 5.735764e-01 -8.191520e-01
    outer loop
      vertex 0.000000e+00 -2.500000e-01 9.330127e-01
      vertex 3.000000e+00 -2.500000e-01 9.330127e-01
      vertex 3.000000e+00 -3.213938e-01 8.830222e-01
    endloop
  endfacet
  facet normal 0.000000e+00 5.735764e-01 -8.191520e-01
    outer loop
      vertex 0.000000e+00 -2.500000e-01 9.330127e-01
      vertex 3.000000e+00 -3.213938e-01 8.830222e-01
      vertex 0.000000e+00 -3.213938e-01 8.830222e-01
    endloop
  endfacet
  facet normal -1.000000e+00 0.000000e+00 0.000000e+00
    outer loop
      vertex 0.000000e+00 0.000000e+00 5.000000e-01
      vertex 0.000000e+00 -3.213938e-01 8.830222e-01
      vertex 0.000000e+00 -2.500000e-01 9.330127e-01
    endloop
  endfacet
  facet normal 1.000000e+00 0.000000e+00 0.000000e+00
    outer loop
      vertex 3.000000e+00 0.000000e+00 5.000000e-01
      vertex 3.000000e+00 -2.500000e-01 9.330127e-01
      vertex 3.000000e+00 -3.213938e-01 8.830222e-01
    endloop
  endfacet
  facet normal 0.000000e+00 7.071068e-01 -7.071068e-01
    outer loop
      vertex 0.000000e+00 -3.213938e-01 8.830222e-01
      vertex 3.000000e+00 -3.213938e-01 8.830222e-01
      vertex 3.000000e+00 -3.830222e-01 8.213938e-01
    endloop
  endfacet
  facet normal 0.000000e+00 7.071068e-01 -7.071068e-01
    outer loop
      vertex 0.000000e+00 -3.213938e-01 8.830222e-01
      vertex 3.000000e+00 -3.830222e-01 8.213938e-01
      vertex 0.000000e+00 -3.830222e-01 8.213938e-01
    endloop
  endfacet
  facet normal -1.000000e+00 0.000000e+00 0.000000e+00
    outer loop
      vertex 0.000000e+00 0.000000e+00 5.000000e-01
      vertex 0.000000e+00 -3.830222e-01 8.213938e-01
      vertex 0.000000e+00 -3.213938e-01 8.830222e-01
    endloop
  endfacet
  facet normal 1.000000e+00 0.000000e+00 0.000000e+00
    outer loop
      vertex 3.000000e+00 0.000000e+00 5.000000e-01
      vertex 3.000000e+00 -3.213938e-01 8.830222e-01
      vertex 3.000000e+00 -3.830222e-01 8.213938e-01
    endloop
  endfacet
  facet normal 0.000000e+00 8.191520e-01 -5.735764e-01
    outer loop
      vertex 0.000000e+00 -3.830222e-01 8.213938e-01
      vertex 3.000000e+00 -3.830222e-01 8.213938e-01
      vertex 3.000000e+00 -4.330127e-01 7.500000e-01
    endloop
  endfacet
  facet normal 0.000000e+00 8.191520e-01 -5.735764e-01
    outer loop
      vertex 0.000000e+00 -3.830222e-01 8.213938e-01
      vertex 3.000000e+00 -4.330127e-01 7.500000e-01
      vertex 0.000000e+00 -4.330127e-01 7.500000e-01
    endloop
  endfacet
  facet normal -1.000000e+00 0.000000e+00 0.000000e+00
    outer loop
      vertex 0.000000e+00 0.000000e+00 5.000000e-01
      vertex 0.000000e+00 -4.330127e-01 7.500000e-01
      vertex 0.000000e+00 -3.830222e-01 8.213938e-01
    endloop
  endfacet
  facet normal 1.000000e+00 0.000000e+00 0.000000e+00
    outer loop
      vertex 3.000000e+00 0.000000e+00 5.000000e-01
      vertex 3.000000e+00 -3.830222e-01 8.213938e-01
      vertex 3.000000e+00 -4.330127e-01 7.500000e-01
    endloop
  endfacet
  facet normal 0.000000e+00 9.063078e-01 -4.226183e-01
    outer loop
      vertex 0.000000e+00 -4.330127e-01 7.500000e-01
      vertex 3.000000e+00 -4.330127e-01 7.500000e-01
      vertex 3.000000e+00 -4.698463e-01 6.710101e-01
    endloop
  endfacet
  facet normal 0.000000e+00 9.063078e-01 -4.226183e-01
    outer loop
      vertex 0.000000e+00 -4.330127e-01 7.500000e-01
      vertex 3.000000e+00 -4.698463e-01 6.710101e-01
      vertex 0.000000e+00 -4.698463e-01 6.710101e-01
    endloop
  endfacet
  facet normal -1.000000e+00 0.000000e+00 0.000000e+00
    outer loop
      vertex 0.000000e+00 0.000000e+00 5.000000e-01
      vertex 0.000000e+00 -4.698463e-01 6.710101e-01
      vertex 0.000000e+00 -4.330127e-01 7.500000e-01
    endloop
  endfacet
  facet normal 1.000000e+00 0.000000e+00 0.000000e+00
    outer loop
      vertex 3.000000e+00 0.000000e+00 5.000000e-01
      vertex 3.000000e+00 -4.330127e-01 7.500000e-01
      vertex 3.000000e+00 -4.698463e-01 6.710101e-01
    endloop
  endfacet
  facet normal 0.000000e+00 9.659258e-01 -2.588190e-01
    outer loop
      vertex 0.000000e+00 -4.698463e-01 6.710101e-01
      vertex 3.000000e+00 -4.698463e-01 6.710101e-01
      vertex 3.000000e+00 -4.924039e-01 5.868241e-01
    endloop
  endfacet
  facet normal 0.000000e+00 9.659258e-01 -2.588190e-01
    outer loop
      vertex 0.000000e+00 -4.698463e-01 6.710101e-01
      vertex 3.000000e+00 -4.924039e-01 5.868241e-01
      vertex 0.000000e+00 -4.924039e-01 5.868241e-01
    endloop
  endfacet
  facet normal -1.000000e+00 0.000000e+00 0.000000e+00
    outer loop
      vertex 0.000000e+00 0.000000e+00 5.000000e-01
      vertex 0.000000e+00 -4.924039e-01 5.868241e-01
      vertex 0.000000e+00 -4.698463e-01 6.710101e-01
    endloop
  endfacet
  facet normal 1.000000e+00 0.000000e+00 0.000000e+00
    outer loop
      vertex 3.000000e+00 0.000000e+00 5.000000e-01
      vertex 3.000000e+00 -4.698463e-01 6.710101e-01
      vertex 3.000000e+00 -4.924039e-01 5.868241e-01
    endloop
  endfacet
  facet normal 0.000000e+00 9.961947e-01 -8.715574e-02
    outer loop
      vertex 0.000000e+00 -4.924039e-01 5.868241e-01
      vertex 3.000000e+00 -4.924039e-01 5.868241e-01
      vertex 3.000000e+00 -5.000000e-01 5.000000e-01
    endloop
  endfacet
  facet normal 0.000000e+00 9.961947e-01 -8.715574e-02
    outer loop
      vertex 0.000000e+00 -4.924039e-01 5.868241e-01
      vertex 3.000000e+00 -5.000000e-01 5.000000e-01
      vertex 0.000000e+00 -5.000000e-01 5.000000e-01
    endloop
  endfacet
  facet normal -1.000000e+00 0.000000e+00 0.000000e+00
    outer loop
      vertex 0.000000e+00 0.000000e+00 5.000000e-01
      vertex 0.000000e+00 -5.000000e-01 5.000000e-01
      vertex 0.000000e+00 -4.924039e-01 5.868241e-01
    endloop
  endfacet
  facet normal 1.000000e+00 0.000000e+00 0.000000e+00
    outer loop
      vertex 3.000000e+00 0.000000e+00 5.000000e-01
      vertex 3.000000e+00 -4.924039e-01 5.868241e-01
      vertex 3.000000e+00 -5.000000e-01 5.000000e-01
    endloop
  endfacet
  facet normal -0.000000e+00 9.961947e-01 8.715574e-02
    outer loop
      vertex 0.000000e+00 -5.000000e-01 5.000000e-01
      vertex 3.000000e+00 -5.000000e-01 5.000000e-01
      vertex 3.000000e+00 -4.924039e-01 4.131759e-01
    endloop
  endfacet
  facet normal 0.000000e+00 9.961947e-01 8.715574e-02
    outer loop
      vertex 0.000000e+00 -5.000000e-01 5.000000e-01
      vertex 3.000000e+00 -4.924039e-01 4.131759e-01
      vertex 0.000000e+00 -4.924039e-01 4.131759e-01
    endloop
  endfacet
  facet normal -1.000000e+00 0.000000e+00 0.000000e+00
    outer loop
      vertex 0.000000e+00 0.000000e+00 5.000000e-01
      vertex 0.000000e+00 -4.924039e-01 4.131759e-01
      vertex 0.000000e+00 -5.000000e-01 5.000000e-01
    endloop
  endfacet
  facet normal 1.000000e+00 0.000000e+00 0.000000e+00
    outer loop
      vertex 3.000000e+00 0.000000e+00 5.000000e-01
      vertex 3.000000e+00 -5.000000e-01 5.000000e-01
      vertex 3.000000e+00 -4.924039e-01 4.131759e-01
    endloop
  endfacet
  facet normal -0.000000e+00 9.659258e-01 2.588190e-01
    outer loop
      vertex 0.000000e+00 -4.924039e-01 4.131759e-01
      vertex 3.000000e+00 -4.924039e-01 4.131759e-01
      vertex 3.000000e+00 -4.698463e-01 3.289899e-01
    endloop
  endfacet
  facet normal 0.000000e+00 9.659258e-01 2.588190e-01
    outer loop
      vertex 0.000000e+00 -4.924039e-01 4.131759e-01
      vertex 3.000000e+00 -4.698463e-01 3.289899e-01
      vertex 0.000000e+00 -4.698463e-01 3.289899e-01
    endloop
  endfacet
  facet normal -1.000000e+00 0.000000e+00 0.000000e+00
    outer loop
      vertex 0.000000e+00 0.000000e+00 5.000000e-01
      vertex 0.000000e+00 -4.698463e-01 3.289899e-01
      vertex 0.000000e+00 -4.924039e-01 4.131759e-01
    endloop
  endfacet
  facet normal 1.000000e+00 0.000000e+00 0.000000e+00
    outer loop
      vertex 3.000000e+00 0.000000e+00 5.000000e-01
      vertex 3.000000e+00 -4.924039e-01 4.131759e-01
      vertex 3.000000e+00 -4.698463e-01 3.289899e-01
    endloop
  endfacet
  facet normal -0.000000e+00 9.063078e-01 4.226183e-01
    outer loop
      vertex 0.000000e+00 -4.698463e-01 3.289899e-01
      vertex 3.000000e+00 -4.698463e-01 3.289899e-01
      vertex 3.000000e+00 -4.330127e-01 2.500000e-01
    endloop
  endfacet
  facet normal 0.000000e+00 9.063078e-01 4.226183e-01
    outer loop
      vertex 0.000000e+00 -4.698463e-01 3.289899e-01
      vertex 3.000000e+00 -4.330127e-01 2.500000e-01
      vertex 0.000000e+00 -4.330127e-01 2.500000e-01
    endloop
  endfacet
  facet normal -1.000000e+00 0.000000e+00 0.000000e+00
    outer loop
      vertex 0.000000e+00 0.000000e+00 5.000000e-01
      vertex 0.000000e+00 -4.330127e-01 2.500000e-01
      vertex 0.000000e+00 -4.698463e-01 3.289899e-01
    endloop
  endfacet
  facet normal 1.000000e+00 0.000000e+00 0.000000e+00
    outer loop
      vertex 3.000000e+00 0.000000e+00 5.000000e-01
      vertex 3.000000e+00 -4.698463e-01 3.289899e-01
      vertex 3.000000e+00 -4.330127e-01 2.500000e-01
    endloop
  endfacet
  facet normal -0.000000e+00 8.191520e-01 5.735764e-01
    outer loop
      vertex 0.000000e+00 -4.330127e-01 2.500000e-01
      vertex 3.000000e+00 -4.330127e-01 2.500000e-01
      vertex 3.000000e+00 -3.830222e-01 1.786062e-01
    endloop
  endfacet
  facet normal 0.000000e+00 8.191520e-01 5.735764e-01
    outer loop
      vertex 0.000000e+00 -4.330127e-01 2.500000e-01
      vertex 3.000000e+00 -3.830222e-01 1.786062e-01
      vertex 0.000000e+00 -3.830222e-01 1.786062e-01
    endloop
  endfacet
  facet normal -1.000000e+00 0.000000e+00 0.000000e+00
    outer loop
      vertex 0.000000e+00 0.000000e+00 5.000000e-01
      vertex 0.000000e+00 -3.830222e-01 1.786062e-01
      vertex 0.000000e+00 -4.330127e-01 2.500000e-01
    endloop
  endfacet
  facet normal 1.000000e+00 0.000000e+00 0.000000e+00
    outer loop
      vertex 3.000000e+00 0.000000e+00 5.000000e-01
      vertex 3.000000e+00 -4.330127e-01 2.500000e-01
      vertex 3.000000e+00 -3.830222e-01 1.786062e-01
    endloop
  endfacet
  facet normal -0.000000e+00 7.071068e-01 7.071068e-01
    outer loop
      vertex 0.000000e+00 -3.830222e-01 1.786062e-01
      vertex 3.000000e+00 -3.830222e-01 1.786062e-01
      vertex 3.000000e+00 -3.213938e-01 1.169778e-01
    endloop
  endfacet
  facet normal 0.000000e+00 7.071068e-01 7.071068e-01
    outer loop
      vertex 0.000000e+00 -3.830222e-01 1.786062e-01
      vertex 3.000000e+00 -3.213938e-01 1.169778e-01
      vertex 0.000000e+00 -3.213938e-01 1.169778e-01
    endloop
  endfacet
  facet normal -1.000000e+00 0.000000e+00 0.000000e+00
    outer loop
      vertex 0.000000e+00 0.000000e+00 5.000000e-01
      vertex 0.000000e+00 -3.213938e-01 1.169778e-01
      vertex 0.000000e+00 -3.830222e-01 1.786062e-01
    endloop
  endfacet
  facet normal 1.000000e+00 0.000000e+00 0.000000e+00
    outer loop
      vertex 3.000000e+00 0.000000e+00 5.000000e-01
      vertex 3.000000e+00 -3.830222e-01 1.786062e-01
      vertex 3.000000e+00 -3.213938e-01 1.169778e-01
    endloop
  endfacet
  facet normal -0.000000e+00 5.735764e-01 8.191520e-01
    outer loop
      vertex 0.000000e+00 -3.213938e-01 1.169778e-01
      vertex 3.000000e+00 -3.213938e-01 1.169778e-01
      vertex 3.000000e+00 -2.500000e-01 6.698730e-02
    endloop
  endfacet
  facet normal 0.000000e+00 5.735764e-01 8.191520e-01
    outer loop
      vertex 0.000000e+00 -3.213938e-01 1.169778e-01
      vertex 3.000000e+00 -2.500000e-01 6.698730e-02
      vertex 0.000000e+00 -2.500000e-01 6.698730e-02
    endloop
  endfacet
  facet normal -1.000000e+00 0.000000e+00 0.000000e+00
    outer loop
      vertex 0.000000e+00 0.000000e+00 5.000000e-01
      vertex 0.000000e+00 -2.500000e-01 6.698730e-02
      vertex 0.000000e+00 -3.213938e-01 1.169778e-01
    endloop
  endfacet
  facet normal 1.000000e+00 0.000000e+00 0.000000e+00
    outer loop
      vertex 3.000000e+00 0.000000e+00 5.000000e-01
      vertex 3.000000e+00 -3.213938e-01 1.169778e-01
      vertex 3.000000e+00 -2.500000e-01 6.698730e-02
    endloop
  endfacet
  facet normal -0.000000e+00 4.226183e-01 9.063078e-01
    outer loop
      vertex 0.000000e+00 -2.500000e-01 6.698730e-02
      vertex 3.000000e+00 -2.500000e-01 6.698730e-02
      vertex 3.000000e+00 -1.710101e-01 3.015369e-02
    endloop
  endfacet
  facet normal 0.000000e+00 4.226183e-01 9.063078e-01
    outer loop
      vertex 0.000000e+00 -2.500000e-01 6.698730e-02
      vertex 3.000000e+00 -1.710101e-01 3.015369e-02
      vertex 0.000000e+00 -1.710101e-01 3.015369e-02
    endloop
  endfacet
  facet normal -1.000000e+00 0.000000e+00 0.000000e+00
    outer loop
      vertex 0.000000e+00 0.000000e+00 5.000000e-01
      vertex 0.000000e+00 -1.710101e-01 3.015369e-02
      vertex 0.000000e+00 -2.500000e-01 6.698730e-02
    endloop
  endfacet
  facet normal 1.000000e+00 0.000000e+00 0.000000e+00
    outer loop
      vertex 3.000000e+00 0.000000e+00 5.000000e-01
      vertex 3.000000e+00 -2.500000e-01 6.698730e-02
      vertex 3.000000e+00 -1.710101e-01 3.015369e-02
    endloop
  endfacet
  facet normal -0.000000e+00 2.588190e-01 9.659258e-01
    outer loop
      vertex 0.000000e+00 -1.710101e-01 3.015369e-02
      vertex 3.000000e+00 -1.710101e-01 3.015369e-02
      vertex 3.000000e+00 -8.682409e-02 7.596123e-03
    endloop
  endfacet
  facet normal 0.000000e+00 2.588190e-01 9.659258e-01
    outer loop
      vertex 0.000000e+00 -1.710101e-01 3.015369e-02
      vertex 3.000000e+00 -8.682409e-02 7.596123e-03
      vertex 0.000000e+00 -8.682409e-02 7.596123e-03
    endloop
  endfacet
  facet normal -1.000000e+00 0.000000e+00 0.000000e+00
    outer loop
      vertex 0.000000e+00 0.000000e+00 5.000000e-01
      vertex 0.000000e+00 -8.682409e-02 7.596123e-03
      vertex 0.000000e+00 -1.710101e-01 3.015369e-02
    endloop
  endfacet
  facet normal 1.000000e+00 0.000000e+00 0.000000e+00
    outer loop
      vertex 3.000000e+00 0.000000e+00 5.000000e-01
      vertex 3.000000e+00 -1.710101e-01 3.015369e-02
      vertex 3.000000e+00 -8.682409e-02 7.596123e-03
    endloop
  endfacet
  facet normal -0.000000e+00 8.715574e-02 9.961947e-01
    outer loop
      vertex 0.000000e+00 -8.682409e-02 7.596123e-03
      vertex 3.000000e+00 -8.682409e-02 7.596123e-03
      vertex 3.000000e+00 -9.184851e-17 0.000000e+00
    endloop
  endfacet
  facet normal 0.000000e+00 8.715574e-02 9.961947e-01
    outer loop
      vertex 0.000000e+00 -8.682409e-02 7.596123e-03
      vertex 3.000000e+00 -9.184851e-17 0.000000e+00
      vertex 0.000000e+00 -9.184851e-17 0.000000e+00
    endloop
  endfacet
  facet normal -1.000000e+00 0.000000e+00 0.000000e+00
    outer loop
      vertex 0.000000e+00 0.000000e+00 5.000000e-01
      vertex 0.000000e+00 -9.184851e-17 0.000000e+00
      vertex 0.000000e+00 -8.682409e-02 7.596123e-03
    endloop
  endfacet
  facet normal 1.000000e+00 0.000000e+00 0.000000e+00
    outer loop
      vertex 3.000000e+00 0.000000e+00 5.000000e-01
      vertex 3.000000e+00 -8.682409e-02 7.596123e-03
      vertex 3.000000e+00 -9.184851e-17 0.000000e+00
    endloop
  endfacet
  facet normal 0.000000e+00 -8.715574e-02 9.961947e-01
    outer loop
      vertex 0.000000e+00 -9.184851e-17 0.000000e+00
      vertex 3.000000e+00 -9.184851e-17 0.000000e+00
      vertex 3.000000e+00 8.682409e-02 7.596123e-03
    endloop
  endfacet
  facet normal 0.000000e+00 -8.715574e-02 9.961947e-01
    outer loop
      vertex 0.000000e+00 -9.184851e-17 0.000000e+00
      vertex 3.000000e+00 8.682409e-02 7.596123e-03
      vertex 0.000000e+00 8.682409e-02 7.596123e-03
    endloop
  endfacet
  facet normal -1.000000e+00 0.000000e+00 0.000000e+00
    outer loop
      vertex 0.000000e+00 0.000000e+00 5.000000e-01
      vertex 0.000000e+00 8.682409e-02 7.596123e-03
      vertex 0.000000e+00 -9.184851e-17 0.000000e+00
    endloop
  endfacet
  facet normal 1.000000e+00 0.000000e+00 0.000000e+00
    outer loop
      vertex 3.000000e+00 0.000000e+00 5.000000e-01
      vertex 3.000000e+00 -9.184851e-17 0.000000e+00
      vertex 3.000000e+00 8.682409e-02 7.596123e-03
    endloop
  endfacet
  facet normal 0.000000e+00 -2.588190e-01 9.659258e-01
    outer loop
      vertex 0.000000e+00 8.682409e-02 7.596123e-03
      vertex 3.000000e+00 8.682409e-02 7.596123e-03
      vertex 3.000000e+00 1.710101e-01 3.015369e-02
    endloop
  endfacet
  facet normal 0.000000e+00 -2.588190e-01 9.659258e-01
    outer loop
      vertex 0.000000e+00 8.682409e-02 7.596123e-03
      vertex 3.000000e+00 1.710101e-01 3.015369e-02
      vertex 0.000000e+00 1.710101e-01 3.015369e-02
    endloop
  endfacet
  facet normal -1.000000e+00 0.000000e+00 0.000000e+00
    outer loop
      vertex 0.000000e+00 0.000000e+00 5.000000e-01
      vertex 0.000000e+00 1.710101e-01 3.015369e-02
      vertex 0.000000e+00 8.682409e-02 7.596123e-03
    endloop
  endfacet
  facet normal 1.000000e+00 0.000000e+00 0.000000e+00
    outer loop
      vertex 3.000000e+00 0.000000e+00 5.000000e-01
      vertex 3.000000e+00 8.682409e-02 7.596123e-03
      vertex 3.000000e+00 1.710101e-01 3.015369e-02
    endloop
  endfacet
  facet normal 0.000000e+00 -4.226183e-01 9.063078e-01
    outer loop
      vertex 0.000000e+00 1.710101e-01 3.015369e-02
      vertex 3.000000e+00 1.710101e-01 3.015369e-02
      vertex 3.000000e+00 2.500000e-01 6.698730e-02
    endloop
  endfacet
  facet normal 0.000000e+00 -4.226183e-01 9.063078e-01
    outer loop
      vertex 0.000000e+00 1.710101e-01 3.015369e-02
      vertex 3.000000e+00 2.500000e-01 6.698730e-02
      vertex 0.000000e+00 2.500000e-01 6.698730e-02
    endloop
  endfacet
  facet normal -1.000000e+00 0.000000e+00 0.000000e+00
    outer loop
      vertex 0.000000e+00 0.000000e+00 5.000000e-01
      vertex 0.000000e+00 2.500000e-01 6.698730e-02
      vertex 0.000000e+00 1.710101e-01 3.015369e-02
    endloop
  endfacet
  facet normal 1.000000e+00 0.000000e+00 0.000000e+00
    outer loop
      vertex 3.000000e+00 0.000000e+00 5.000000e-01
      vertex 3.000000e+00 1.710101e-01 3.015369e-02
      vertex 3.000000e+00 2.500000e-01 6.698730e-02
    endloop
  endfacet
  facet normal 0.000000e+00 -5.735764e-01 8.191520e-01
    outer loop
      vertex 0.000000e+00 2.500000e-01 6.698730e-02
      vertex 3.000000e+00 2.500000e-01 6.698730e-02
      vertex 3.000000e+00 3.213938e-01 1.169778e-01
    endloop
  endfacet
  facet normal 0.000000e+00 -5.735764e-01 8.191520e-01
    outer loop
      vertex 0.000000e+00 2.500000e-01 6.698730e-02
      vertex 3.000000e+00 3.213938e-01 1.169778e-01
      vertex 0.000000e+00 3.213938e-01 1.169778e-01
    endloop
  endfacet
  facet normal -1.000000e+00 0.000000e+00 0.000000e+00
    outer loop
      vertex 0.000000e+00 0.000000e+00 5.000000e-01
      vertex 0.000000e+00 3.213938e-01 1.169778e-01
      vertex 0.000000e+00 2.500000e-01 6.698730e-02
    endloop
  endfacet
  facet normal 1.000000e+00 0.000000e+00 0.000000e+00
    outer loop
      vertex 3.000000e+00 0.000000e+00 5.000000e-01
      vertex 3.000000e+00 2.500000e-01 6.698730e-02
      vertex 3.000000e+00 3.213938e-01 1.169778e-01
    endloop
  endfacet
  facet normal 0.000000e+00 -7.071068e-01 7.071068e-01
    outer loop
      vertex 0.000000e+00 3.213938e-01 1.169778e-01
      vertex 3.000000e+00 3.213938e-01 1.169778e-01
      vertex 3.000000e+00 3.830222e-01 1.786062e-01
    endloop
  endfacet
  facet normal 0.000000e+00 -7.071068e-01 7.071068e-01
    outer loop
      vertex 0.000000e+00 3.213938e-01 1.169778e-01
      vertex 3.000000e+00 3.830222e-01 1.786062e-01
      vertex 0.000000e+00 3.830222e-01 1.786062e-01
    endloop
  endfacet
  facet normal -1.000000e+00 0.000000e+00 0.000000e+00
    outer loop
      vertex 0.000000e+00 0.000000e+00 5.000000e-01
      vertex 0.000000e+00 3.830222e-01 1.786062e-01
      vertex 0.000000e+00 3.213938e-01 1.169778e-01
    endloop
  endfacet
  facet normal 1.000000e+00 0.000000e+00 0.000000e+00
    outer loop
      vertex 3.000000e+00 0.000000e+00 5.000000e-01
      vertex 3.000000e+00 3.213938e-01 1.169778e-01
      vertex 3.000000e+00 3.830222e-01 1.786062e-01
    endloop
  endfacet
  facet normal 0.000000e+00 -8.191520e-01 5.735764e-01
    outer loop
      vertex 0.000000e+00 3.830222e-01 1.786062e-01
      vertex 3.000000e+00 3.830222e-01 1.786062e-01
      vertex 3.000000e+00 4.330127e-01 2.500000e-01
    endloop
  endfacet
  facet normal 0.000000e+00 -8.191520e-01 5.735764e-01
    outer loop
      vertex 0.000000e+00 3.830222e-01 1.786062e-01
      vertex 3.000000e+00 4.330127e-01 2.500000e-01
      vertex 0.000000e+00 4.330127e-01 2.500000e-01
    endloop
  endfacet
  facet normal -1.000000e+00 0.000000e+00 0.000000e+00
    outer loop
      vertex 0.000000e+00 0.000000e+00 5.000000e-01
      vertex 0.000000e+00 4.330127e-01 2.500000e-01
      vertex 0.000000e+00 3.830222e-01 1.786062e-01
    endloop
  endfacet
  facet normal 1.000000e+00 0.000000e+00 0.000000e+00
    outer loop
      vertex 3.000000e+00 0.000000e+00 5.000000e-01
      vertex 3.000000e+00 3.830222e-01 1.786062e-01
      vertex 3.000000e+00 4.330127e-01 2.500000e-01
    endloop
  endfacet
  facet normal 0.000000e+00 -9.063078e-01 4.226183e-01
    outer loop
      vertex 0.000000e+00 4.330127e-01 2.500000e-01
      vertex 3.000000e+00 4.330127e-01 2.500000e-01
      vertex 3.000000e+00 4.698463e-01 3.289899e-01
    endloop
  endfacet
  facet normal 0.000000e+00 -9.063078e-01 4.226183e-01
    outer loop
      vertex 0.000000e+00 4.330127e-01 2.500000e-01
      vertex 3.000000e+00 4.698463e-01 3.289899e-01
      vertex 0.000000e+00 4.698463e-01 3.289899e-01
    endloop
  endfacet
  facet normal -1.000000e+00 0.000000e+00 0.000000e+00
    outer loop
      vertex 0.000000e+00 0.000000e+00 5.000000e-01
      vertex 0.000000e+00 4.698463e-01 3.289899e-01
      vertex 0.000000e+00 4.330127e-01 2.500000e-01
    endloop
  endfacet
  facet normal 1.000000e+00 0.000000e+00 0.000000e+00
    outer loop
      vertex 3.000000e+00 0.000000e+00 5.000000e-01
      vertex 3.000000e+00 4.330127e-01 2.500000e-01
      vertex 3.000000e+00 4.698463e-01 3.289899e-01
    endloop
  endfacet
  facet normal 0.000000e+00 -9.659258e-01 2.588190e-01
    outer loop
      vertex 0.000000e+00 4.698463e-01 3.289899e-01
      vertex 3.000000e+00 4.698463e-01 3.289899e-01
      vertex 3.000000e+00 4.924039e-01 4.131759e-01
    endloop
  endfacet
  facet normal 0.000000e+00 -9.659258e-01 2.588190e-01
    outer loop
      vertex 0.000000e+00 4.698463e-01 3.289899e-01
      vertex 3.000000e+00 4.924039e-01 4.131759e-01
      vertex 0.000000e+00 4.924039e-01 4.131759e-01
    endloop
  endfacet
  facet normal -1.000000e+00 0.000000e+00 0.000000e+00
    outer loop
      vertex 0.000000e+00 0.000000e+00 5.000000e-01
      vertex 0.000000e+00 4.924039e-01 4.131759e-01
      vertex 0.000000e+00 4.698463e-01 3.289899e-01
    endloop
  endfacet
  facet normal 1.000000e+00 0.000000e+00 0.000000e+00
    outer loop
      vertex 3.000000e+00 0.000000e+00 5.000000e-01
      vertex 3.000000e+00 4.698463e-01 3.289899e-01
      vertex 3.000000e+00 4.924039e-01 4.131759e-01
    endloop
  endfacet
  facet normal 0.000000e+00 -9.961947e-01 8.715574e-02
    outer loop
      vertex 0.000000e+00 4.924039e-01 4.131759e-01
      vertex 3.000000e+00 4.924039e-01 4.131759e-01
      vertex 3.000000e+00 5.000000e-01 5.000000e-01
    endloop
  endfacet
  facet normal 0.000000e+00 -9.961947e-01 8.715574e-02
    outer loop
      vertex 0.000000e+00 4.924039e-01 4.131759e-01
      vertex 3.000000e+00 5.000000e-01 5.000000e-01
      vertex 0.000000e+00 5.000000e-01 5.000000e-01
    endloop
  endfacet
  facet normal -1.000000e+00 0.000000e+00 0.000000e+00
    outer loop
      vertex 0.000000e+00 0.000000e+00 5.000000e-01
      vertex 0.000000e+00 5.000000e-01 5.000000e-01
      vertex 0.000000e+00 4.924039e-01 4.131759e-01
    endloop
  endfacet
  facet normal 1.000000e+00 0.000000e+00 0.000000e+00
    outer loop
      vertex 3.000000e+00 0.000000e+00 5.000000e-01
      vertex 3.000000e+00 4.924039e-01 4.131759e-01
      vertex 3.000000e+00 5.000000e-01 5.000000e-01
    endloop
  endfacet
endsolid horizontal_cylinder
